# xmcd
#
# Track frame offsets: 
#        150
#        25342
#        51487
#        75021
#        94762
#        117123
#        146529
#        170781
#        206847
#        225580
#        250762
#        277751
#
# Disc length: 4017 seconds
#
# Revision: 0
# Processed by: cddbd v1.5.2PL0 Copyright (c) Steve Scherf et al.
# Submitted via: ExactAudioCopyFreeDBPlugin 1.0
#
DISCID=9a0faf0c
DTITLE=Various Artist - Tinh khuc Phu Quang 10
DYEAR=1900
DGENRE=
TTITLE0=Quang Ly - Pho cu cua toi
TTITLE1=Phuong Anh - Im lang dem Hanoi
TTITLE2=Kasim Hoang Vu - Hanoi ngay tro ve
TTITLE3=5 dong ke - Chieu dong Moscow
TTITLE4=Ho Ngoc Ha - Nhung ngay ta yeu nhau
TTITLE5=Tran Manh Tuan - Mot dai kho mot toi
TTITLE6=Khanh Du - Co mot ngay
TTITLE7=My Hanh - Romance 1
TTITLE8=Hong Nhung - Hoang hon doc
TTITLE9=Le Quyen - Lang dang chieu dong Hanoi
TTITLE10=Ngoc Anh - Gui mot tinh yeu
TTITLE11=Hong Nhung - Em oi Hanoi pho
EXTD=
EXTT0=
EXTT1=
EXTT2=
EXTT3=
EXTT4=
EXTT5=
EXTT6=
EXTT7=
EXTT8=
EXTT9=
EXTT10=
EXTT11=
PLAYORDER=
